<svg xmlns="http://www.w3.org/2000/svg" viewBox="0 0 1920 1080" preserveAspectRatio="xMidYMid slice">
  <defs>
    <symbol id="sparkle" viewBox="-18 -18 36 36" overflow="visible">
      <polygon points="0,-16 0.85,0 0,16 -0.85,0" />
      <polygon points="-16,0 0,0.85 16,0 0,-0.85" />
    </symbol>

    <symbol id="sparkle-bright" viewBox="-22 -22 44 44" overflow="visible">
      <polygon points="0,-20 1.05,0 0,20 -1.05,0" />
      <polygon points="-20,0 0,1.05 20,0 0,-1.05" />
    </symbol>
  </defs>

  <rect width="1920" height="1080" fill="#000204" />

  <g fill="#eef4ff" opacity="0.92" shape-rendering="geometricPrecision">
    <use href="#sparkle" x="72.3" y="52.3" width="15.4" height="15.4" />
    <use href="#sparkle" x="203.9" y="114" width="12.1" height="12.1" />
    <use href="#sparkle" x="350.1" y="35.1" width="19.8" height="19.8" />
    <use href="#sparkle" x="513.4" y="88.4" width="13.2" height="13.2" />
    <use href="#sparkle" x="681.8" y="26.8" width="16.5" height="16.5" />
    <use href="#sparkle" x="834.5" y="134.5" width="11" height="11" />
    <use href="#sparkle" x="968.5" y="43.5" width="23.1" height="23.1" />
    <use href="#sparkle" x="1132.8" y="102.8" width="14.3" height="14.3" />
    <use href="#sparkle" x="1281.2" y="31.2" width="17.6" height="17.6" />
    <use href="#sparkle" x="1444" y="124" width="12.1" height="12.1" />
    <use href="#sparkle" x="1599.5" y="59.5" width="20.9" height="20.9" />
    <use href="#sparkle" x="1773.4" y="143.4" width="13.2" height="13.2" />
    <use href="#sparkle" x="1871.8" y="36.8" width="16.5" height="16.5" />
    <use href="#sparkle" x="123.4" y="233.4" width="13.2" height="13.2" />
    <use href="#sparkle" x="280.6" y="290.6" width="18.7" height="18.7" />
    <use href="#sparkle" x="424.5" y="214.5" width="11" height="11" />
    <use href="#sparkle" x="572.3" y="332.3" width="15.4" height="15.4" />
    <use href="#sparkle" x="714" y="253.9" width="12.1" height="12.1" />
    <use href="#sparkle" x="860.1" y="350.1" width="19.8" height="19.8" />
    <use href="#sparkle" x="1003.4" y="203.4" width="13.2" height="13.2" />
    <use href="#sparkle" x="1151.8" y="311.8" width="16.5" height="16.5" />
    <use href="#sparkle" x="1304.5" y="244.5" width="11" height="11" />
    <use href="#sparkle" x="1451.2" y="331.2" width="17.6" height="17.6" />
    <use href="#sparkle" x="1592.8" y="212.8" width="14.3" height="14.3" />
    <use href="#sparkle" x="1744" y="303.9" width="12.1" height="12.1" />
    <use href="#sparkle" x="1882.3" y="252.3" width="15.4" height="15.4" />
    <use href="#sparkle" x="51.8" y="421.8" width="16.5" height="16.5" />
    <use href="#sparkle" x="183.9" y="503.9" width="12.1" height="12.1" />
    <use href="#sparkle" x="329.6" y="429.6" width="20.9" height="20.9" />
    <use href="#sparkle" x="483.4" y="553.4" width="13.2" height="13.2" />
    <use href="#sparkle" x="632.3" y="462.3" width="15.4" height="15.4" />
    <use href="#sparkle" x="784.5" y="584.5" width="11" height="11" />
    <use href="#sparkle" x="920.6" y="490.6" width="18.7" height="18.7" />
    <use href="#sparkle" x="1072.8" y="412.9" width="14.3" height="14.3" />
    <use href="#sparkle" x="1221.8" y="531.8" width="16.5" height="16.5" />
    <use href="#sparkle" x="1374" y="453.9" width="12.1" height="12.1" />
    <use href="#sparkle" x="1520.1" y="560.1" width="19.8" height="19.8" />
    <use href="#sparkle" x="1673.4" y="483.4" width="13.2" height="13.2" />
    <use href="#sparkle" x="1812.3" y="402.3" width="15.4" height="15.4" />
    <use href="#sparkle" x="92.8" y="662.9" width="14.3" height="14.3" />
    <use href="#sparkle" x="241.2" y="731.2" width="17.6" height="17.6" />
    <use href="#sparkle" x="394.5" y="644.5" width="11" height="11" />
    <use href="#sparkle" x="541.8" y="751.8" width="16.5" height="16.5" />
    <use href="#sparkle" x="693.4" y="673.4" width="13.2" height="13.2" />
    <use href="#sparkle" x="839" y="779" width="22" height="22" />
    <use href="#sparkle" x="994" y="704" width="12.1" height="12.1" />
    <use href="#sparkle" x="1142.3" y="812.3" width="15.4" height="15.4" />
    <use href="#sparkle" x="1290.7" y="690.6" width="18.7" height="18.7" />
    <use href="#sparkle" x="1443.4" y="773.4" width="13.2" height="13.2" />
    <use href="#sparkle" x="1591.8" y="851.8" width="16.5" height="16.5" />
    <use href="#sparkle" x="1744.5" y="714.5" width="11" height="11" />
    <use href="#sparkle" x="1892.8" y="792.9" width="14.3" height="14.3" />
    <use href="#sparkle" x="62.3" y="902.3" width="15.4" height="15.4" />
    <use href="#sparkle" x="213.9" y="974" width="12.1" height="12.1" />
    <use href="#sparkle" x="360.1" y="890.1" width="19.8" height="19.8" />
    <use href="#sparkle" x="513.4" y="1013.4" width="13.2" height="13.2" />
    <use href="#sparkle" x="661.8" y="921.8" width="16.5" height="16.5" />
    <use href="#sparkle" x="814.5" y="1004.5" width="11" height="11" />
    <use href="#sparkle" x="957.9" y="907.9" width="24.2" height="24.2" />
    <use href="#sparkle" x="1112.8" y="992.9" width="14.3" height="14.3" />
    <use href="#sparkle" x="1261.2" y="901.2" width="17.6" height="17.6" />
    <use href="#sparkle" x="1414" y="984" width="12.1" height="12.1" />
    <use href="#sparkle" x="1562.3" y="892.3" width="15.4" height="15.4" />
    <use href="#sparkle" x="1713.4" y="1013.4" width="13.2" height="13.2" />
    <use href="#sparkle" x="1861.8" y="931.8" width="16.5" height="16.5" />
    <use href="#sparkle" x="350.5" y="634.9" width="17.9" height="17.9" />
    <use href="#sparkle" x="340.4" y="920.2" width="9.4" height="9.4" />
    <use href="#sparkle" x="567.6" y="144.6" width="18.8" height="18.8" />
    <use href="#sparkle" x="843.1" y="470.2" width="15.2" height="15.2" />
    <use href="#sparkle" x="1047.3" y="367.6" width="10.9" height="10.9" />
    <use href="#sparkle" x="1373" y="366.7" width="9.6" height="9.6" />
    <use href="#sparkle" x="1373.3" y="150.8" width="17.1" height="17.1" />
    <use href="#sparkle" x="1759.9" y="116.6" width="19" height="19" />
    <use href="#sparkle" x="381.9" y="316.3" width="8.8" height="8.8" />
    <use href="#sparkle" x="1091.9" y="847.5" width="16.5" height="16.5" />
    <use href="#sparkle" x="1220.9" y="96.8" width="12.4" height="12.4" />
    <use href="#sparkle" x="330.1" y="611.6" width="20" height="20" />
    <use href="#sparkle" x="477.2" y="379.8" width="8.9" height="8.9" />
    <use href="#sparkle" x="162.7" y="818.1" width="10" height="10" />
    <use href="#sparkle" x="1551" y="996.4" width="18.5" height="18.5" />
    <use href="#sparkle" x="1151.6" y="976.9" width="14.9" height="14.9" />
    <use href="#sparkle" x="174.9" y="881.1" width="9.2" height="9.2" />
    <use href="#sparkle" x="723.8" y="48.9" width="20.7" height="20.7" />
    <use href="#sparkle" x="735.3" y="236.4" width="12.4" height="12.4" />
    <use href="#sparkle" x="1481.4" y="884.3" width="18.5" height="18.5" />
    <use href="#sparkle" x="467.9" y="39.7" width="12.4" height="12.4" />
    <use href="#sparkle" x="666.3" y="18.5" width="10.7" height="10.7" />
    <use href="#sparkle" x="252.4" y="161.9" width="9.6" height="9.6" />
    <use href="#sparkle" x="1811.3" y="684.6" width="19.9" height="19.9" />
    <use href="#sparkle" x="1808.3" y="373.3" width="16.6" height="16.6" />
    <use href="#sparkle" x="1340.1" y="927.6" width="13.6" height="13.6" />
    <use href="#sparkle" x="1588.9" y="660.1" width="11.5" height="11.5" />
    <use href="#sparkle" x="58.1" y="721.2" width="14.6" height="14.6" />
    <use href="#sparkle" x="1159.6" y="769.7" width="11.3" height="11.3" />
    <use href="#sparkle" x="417.8" y="862.1" width="16.9" height="16.9" />
    <use href="#sparkle" x="1782.3" y="277.3" width="11.5" height="11.5" />
    <use href="#sparkle" x="451.7" y="969.2" width="16.4" height="16.4" />
    <use href="#sparkle" x="389.8" y="652.6" width="18.6" height="18.6" />
    <use href="#sparkle" x="1015.3" y="352.3" width="13.5" height="13.5" />
    <use href="#sparkle" x="1682.5" y="595" width="14.1" height="14.1" />
    <use href="#sparkle" x="1118.7" y="582.4" width="9.9" height="9.9" />
    <use href="#sparkle" x="1361.9" y="915.7" width="12.9" height="12.9" />
    <use href="#sparkle" x="860.3" y="157.6" width="15.5" height="15.5" />
    <use href="#sparkle" x="1678.1" y="75" width="13.9" height="13.9" />
    <use href="#sparkle" x="988.9" y="89" width="10.2" height="10.2" />
    <use href="#sparkle" x="761.1" y="836.2" width="11.7" height="11.7" />
    <use href="#sparkle" x="1269.9" y="848.4" width="18" height="18" />
    <use href="#sparkle" x="682.6" y="49.1" width="13" height="13" />
    <use href="#sparkle" x="1712.1" y="821.3" width="14.3" height="14.3" />
    <use href="#sparkle" x="1569.5" y="398.4" width="15.5" height="15.5" />
    <use href="#sparkle" x="1449.5" y="967.2" width="12.9" height="12.9" />
    <use href="#sparkle" x="718" y="34.1" width="15.8" height="15.8" />
    <use href="#sparkle" x="1815.9" y="463.2" width="18" height="18" />
    <use href="#sparkle" x="1388.3" y="528.8" width="18.5" height="18.5" />
    <use href="#sparkle" x="161" y="405.9" width="16" height="16" />
    <use href="#sparkle" x="340.2" y="747.5" width="17.9" height="17.9" />
    <use href="#sparkle" x="1545.1" y="92.3" width="13.9" height="13.9" />
    <use href="#sparkle" x="1613.1" y="497.4" width="17.5" height="17.5" />
    <use href="#sparkle" x="1811" y="968.9" width="12.7" height="12.7" />
    <use href="#sparkle" x="873" y="973.4" width="19.1" height="19.1" />
    <use href="#sparkle" x="1728.1" y="623.4" width="18.9" height="18.9" />
    <use href="#sparkle" x="506" y="795.8" width="20.3" height="20.3" />
    <use href="#sparkle" x="384" y="220" width="11.5" height="11.5" />
    <use href="#sparkle" x="289.5" y="24.6" width="14.6" height="14.6" />
    <use href="#sparkle" x="917.1" y="29.5" width="14.9" height="14.9" />
    <use href="#sparkle" x="421.1" y="360.9" width="9.6" height="9.6" />
    <use href="#sparkle" x="507.2" y="834.7" width="14.7" height="14.7" />
    <use href="#sparkle" x="526.5" y="150.8" width="19.7" height="19.7" />
    <use href="#sparkle" x="1347.2" y="1005.6" width="13.7" height="13.7" />
    <use href="#sparkle" x="1100.4" y="617.9" width="13.1" height="13.1" />
    <use href="#sparkle" x="949.5" y="441.9" width="10.5" height="10.5" />
    <use href="#sparkle" x="1754.3" y="892.4" width="18.6" height="18.6" />
    <use href="#sparkle" x="1353.9" y="307.7" width="11.5" height="11.5" />
    <use href="#sparkle" x="857.4" y="747.2" width="19.1" height="19.1" />
    <use href="#sparkle" x="1764.8" y="382.1" width="9.1" height="9.1" />
    <use href="#sparkle" x="1723" y="374" width="19.4" height="19.4" />
    <use href="#sparkle" x="395.1" y="207.2" width="9.2" height="9.2" />
    <use href="#sparkle" x="751.3" y="454.8" width="10.6" height="10.6" />
    <use href="#sparkle" x="780.9" y="691.3" width="15.5" height="15.5" />
    <use href="#sparkle" x="407.2" y="733.8" width="10.9" height="10.9" />
    <use href="#sparkle" x="708.9" y="757.1" width="19.3" height="19.3" />
    <use href="#sparkle" x="1013.6" y="122" width="16.6" height="16.6" />
    <use href="#sparkle" x="249.4" y="691.9" width="16.4" height="16.4" />
    <use href="#sparkle" x="28.3" y="525.2" width="12.3" height="12.3" />
    <use href="#sparkle" x="957.2" y="644.1" width="15.8" height="15.8" />
    <use href="#sparkle" x="972.9" y="459.2" width="20.2" height="20.2" />
    <use href="#sparkle" x="1160" y="140.9" width="17.5" height="17.5" />
    <use href="#sparkle" x="358.4" y="723.1" width="20" height="20" />
    <use href="#sparkle" x="806.9" y="224.1" width="12.1" height="12.1" />
    <use href="#sparkle" x="187.8" y="362" width="19.5" height="19.5" />
    <use href="#sparkle" x="574.7" y="395.5" width="10.3" height="10.3" />
    <use href="#sparkle" x="195.9" y="367.3" width="12.3" height="12.3" />
    <use href="#sparkle" x="1567.4" y="407.2" width="20.2" height="20.2" />
    <use href="#sparkle" x="840.4" y="867.7" width="13.3" height="13.3" />
    <use href="#sparkle" x="291" y="374.7" width="9.5" height="9.5" />
    <use href="#sparkle" x="290.4" y="233.1" width="12.8" height="12.8" />
    <use href="#sparkle" x="1549.1" y="638.2" width="17.4" height="17.4" />
    <use href="#sparkle" x="897.3" y="893.3" width="14.6" height="14.6" />
    <use href="#sparkle" x="1856.9" y="96.6" width="17.1" height="17.1" />
    <use href="#sparkle" x="1639.8" y="291.9" width="11.9" height="11.9" />
    <use href="#sparkle" x="903.4" y="61" width="13.3" height="13.3" />
    <use href="#sparkle" x="1297.9" y="937.4" width="17.3" height="17.3" />
    <use href="#sparkle" x="744.3" y="682.2" width="17.7" height="17.7" />
    <use href="#sparkle" x="954" y="277.8" width="12.5" height="12.5" />
    <use href="#sparkle" x="1380.5" y="149.4" width="8.7" height="8.7" />
    <use href="#sparkle" x="355.5" y="966.2" width="14.9" height="14.9" />
    <use href="#sparkle" x="1501.9" y="601.4" width="19.9" height="19.9" />
    <use href="#sparkle" x="1322.6" y="1019.5" width="8.3" height="8.3" />
    <use href="#sparkle" x="1875.4" y="349.2" width="14.6" height="14.6" />
    <use href="#sparkle" x="303.4" y="411.2" width="13.7" height="13.7" />
    <use href="#sparkle" x="554.6" y="479.5" width="12" height="12" />
    <use href="#sparkle" x="1645.2" y="851.9" width="19.1" height="19.1" />
    <use href="#sparkle" x="73.6" y="192.9" width="13.2" height="13.2" />
    <use href="#sparkle" x="831.1" y="739.1" width="10.7" height="10.7" />
    <use href="#sparkle" x="944.2" y="316.6" width="12.6" height="12.6" />
    <use href="#sparkle" x="1391.8" y="295.7" width="20" height="20" />
    <use href="#sparkle" x="1011.4" y="1029.7" width="15.9" height="15.9" />
    <use href="#sparkle" x="812.4" y="432.3" width="15.7" height="15.7" />
    <use href="#sparkle" x="198.3" y="32.7" width="15.8" height="15.8" />
    <use href="#sparkle" x="1239.4" y="548" width="11.5" height="11.5" />
    <use href="#sparkle" x="1416.5" y="113.7" width="15.4" height="15.4" />
    <use href="#sparkle" x="1765.6" y="26.3" width="19" height="19" />
    <use href="#sparkle" x="388.7" y="251.5" width="12.6" height="12.6" />
    <use href="#sparkle" x="1130.2" y="513.7" width="9.9" height="9.9" />
    <use href="#sparkle" x="1227.4" y="430.4" width="9.4" height="9.4" />
    <use href="#sparkle" x="204.7" y="787.9" width="18.1" height="18.1" />
    <use href="#sparkle" x="1094.5" y="298.1" width="14.9" height="14.9" />
    <use href="#sparkle" x="915.2" y="487.7" width="9.7" height="9.7" />
    <use href="#sparkle" x="1352.2" y="757.5" width="9" height="9" />
    <use href="#sparkle" x="1637" y="90.2" width="11" height="11" />
    <use href="#sparkle" x="1745.1" y="516.6" width="17.2" height="17.2" />
    <use href="#sparkle" x="696.7" y="593.8" width="18.2" height="18.2" />
    <use href="#sparkle" x="148.3" y="422.1" width="13.8" height="13.8" />
    <use href="#sparkle" x="1769.5" y="982" width="12.3" height="12.3" />
    <use href="#sparkle" x="1160.7" y="493.4" width="12.9" height="12.9" />
    <use href="#sparkle" x="1467.8" y="128.6" width="14.2" height="14.2" />
    <use href="#sparkle" x="169.1" y="738.4" width="13.2" height="13.2" />
    <use href="#sparkle" x="1202" y="560.1" width="20.6" height="20.6" />
    <use href="#sparkle" x="406.7" y="65.4" width="10.8" height="10.8" />
    <use href="#sparkle" x="1414.1" y="29.5" width="16.7" height="16.7" />
    <use href="#sparkle" x="926.8" y="263" width="15.6" height="15.6" />
    <use href="#sparkle" x="480.5" y="632.8" width="8.5" height="8.5" />
    <use href="#sparkle" x="1480.1" y="181.2" width="8.4" height="8.4" />
    <use href="#sparkle" x="1227.1" y="760.9" width="16.9" height="16.9" />
    <use href="#sparkle" x="1463.2" y="778.7" width="16.5" height="16.5" />
    <use href="#sparkle" x="1845.4" y="577.1" width="18" height="18" />
    <use href="#sparkle" x="1825.8" y="485.1" width="20" height="20" />
    <use href="#sparkle" x="140.9" y="118.6" width="18.5" height="18.5" />
    <use href="#sparkle" x="158.2" y="970.4" width="18.4" height="18.4" />
    <use href="#sparkle" x="299.7" y="749.5" width="12.8" height="12.8" />
    <use href="#sparkle" x="301" y="819.7" width="20" height="20" />
    <use href="#sparkle" x="207.3" y="782.5" width="17.8" height="17.8" />
    <use href="#sparkle" x="1665.1" y="50.8" width="18.3" height="18.3" />
    <use href="#sparkle" x="1808.9" y="867.7" width="13.3" height="13.3" />
    <use href="#sparkle" x="174.9" y="546.6" width="10.2" height="10.2" />
    <use href="#sparkle" x="150.7" y="160.7" width="12.1" height="12.1" />
    <use href="#sparkle" x="1849.8" y="286.3" width="11.6" height="11.6" />
    <use href="#sparkle" x="78.2" y="182.4" width="16.4" height="16.4" />
    <use href="#sparkle" x="94.2" y="722.1" width="12.2" height="12.2" />
    <use href="#sparkle" x="48.4" y="852.8" width="15.7" height="15.7" />
    <use href="#sparkle" x="1638.8" y="490.1" width="18.5" height="18.5" />
    <use href="#sparkle" x="1608.2" y="396.5" width="17.3" height="17.3" />
    <use href="#sparkle" x="90.9" y="713.1" width="17.9" height="17.9" />
    <use href="#sparkle" x="309.2" y="212.7" width="11.7" height="11.7" />
    <use href="#sparkle" x="206.6" y="1011.3" width="9.7" height="9.7" />
    <use href="#sparkle" x="1730.3" y="673.1" width="15.1" height="15.1" />
    <use href="#sparkle" x="184.2" y="908.9" width="16.6" height="16.6" />
    <use href="#sparkle" x="1845.8" y="593.2" width="20.8" height="20.8" />
    <use href="#sparkle" x="1716.6" y="477.5" width="19.6" height="19.6" />
    <use href="#sparkle" x="1676.5" y="306.2" width="9.6" height="9.6" />
    <use href="#sparkle" x="201.1" y="684.5" width="11.9" height="11.9" />
    <use href="#sparkle" x="1683.7" y="987.9" width="11.4" height="11.4" />
    <use href="#sparkle" x="308.6" y="976.2" width="17" height="17" />
    <use href="#sparkle" x="1836.6" y="631.9" width="19.4" height="19.4" />
    <use href="#sparkle" x="232.2" y="142.8" width="16.6" height="16.6" />
    <use href="#sparkle" x="91.8" y="751.9" width="20.8" height="20.8" />
    <use href="#sparkle" x="1780" y="820.5" width="10.5" height="10.5" />
    <use href="#sparkle" x="301.7" y="878.8" width="21.7" height="21.7" />
    <use href="#sparkle" x="166" y="727.7" width="12.1" height="12.1" />
    <use href="#sparkle" x="82.1" y="78.4" width="15.5" height="15.5" />
    <use href="#sparkle" x="1780.4" y="205.8" width="10.8" height="10.8" />
    <use href="#sparkle" x="1765.6" y="532.7" width="19.4" height="19.4" />
    <use href="#sparkle" x="1656.4" y="65.8" width="14.5" height="14.5" />
    <use href="#sparkle" x="1740.5" y="926.1" width="14.1" height="14.1" />
    <use href="#sparkle" x="117.3" y="512.3" width="15.5" height="15.5" />
    <use href="#sparkle" x="243.8" y="691.6" width="16.4" height="16.4" />
    <use href="#sparkle" x="108.2" y="707.6" width="21.5" height="21.5" />
    <use href="#sparkle" x="51.2" y="398.6" width="19.6" height="19.6" />
    <use href="#sparkle" x="296.9" y="530.9" width="12.7" height="12.7" />
    <use href="#sparkle" x="156.8" y="864.1" width="18.2" height="18.2" />
    <use href="#sparkle" x="149.9" y="345.9" width="11.8" height="11.8" />
    <use href="#sparkle" x="1631.6" y="671.9" width="11.1" height="11.1" />
    <use href="#sparkle" x="220.9" y="910.5" width="14" height="14" />
    <use href="#sparkle" x="144.3" y="558.7" width="20.3" height="20.3" />
    <use href="#sparkle" x="1707.6" y="104.8" width="9.7" height="9.7" />
    <!-- projector corridors (beside text panel) -->
    <use href="#sparkle" x="318.4" y="88.2" width="14.2" height="14.2" />
    <use href="#sparkle" x="402.1" y="176.5" width="11.8" height="11.8" />
    <use href="#sparkle" x="468.7" y="268.3" width="13.6" height="13.6" />
    <use href="#sparkle" x="356.9" y="358.4" width="10.4" height="10.4" />
    <use href="#sparkle" x="441.2" y="452.8" width="15.1" height="15.1" />
    <use href="#sparkle" x="389.5" y="548.6" width="12.3" height="12.3" />
    <use href="#sparkle" x="512.4" y="628.1" width="11.2" height="11.2" />
    <use href="#sparkle" x="334.8" y="712.5" width="14.8" height="14.8" />
    <use href="#sparkle" x="428.6" y="806.2" width="10.9" height="10.9" />
    <use href="#sparkle" x="496.3" y="892.7" width="13.4" height="13.4" />
    <use href="#sparkle" x="362.7" y="984.5" width="11.6" height="11.6" />
    <use href="#sparkle" x="278.5" y="432.1" width="12.7" height="12.7" />
    <use href="#sparkle" x="524.8" y="148.9" width="10.2" height="10.2" />
    <use href="#sparkle" x="548.2" y="518.4" width="13.9" height="13.9" />
    <use href="#sparkle" x="1452.3" y="96.4" width="14.5" height="14.5" />
    <use href="#sparkle" x="1518.7" y="188.2" width="11.4" height="11.4" />
    <use href="#sparkle" x="1398.6" y="276.8" width="13.2" height="13.2" />
    <use href="#sparkle" x="1564.1" y="364.5" width="10.8" height="10.8" />
    <use href="#sparkle" x="1426.4" y="448.3" width="15.3" height="15.3" />
    <use href="#sparkle" x="1492.8" y="542.7" width="12.1" height="12.1" />
    <use href="#sparkle" x="1384.5" y="636.2" width="11.7" height="11.7" />
    <use href="#sparkle" x="1548.9" y="724.8" width="14.4" height="14.4" />
    <use href="#sparkle" x="1466.2" y="812.5" width="10.6" height="10.6" />
    <use href="#sparkle" x="1412.7" y="904.3" width="13.8" height="13.8" />
    <use href="#sparkle" x="1524.6" y="988.1" width="11.9" height="11.9" />
    <use href="#sparkle" x="1588.4" y="468.6" width="12.5" height="12.5" />
    <use href="#sparkle" x="1368.2" y="156.7" width="10.3" height="10.3" />
    <use href="#sparkle" x="1688.4" y="248.6" width="13.1" height="13.1" />
    <use href="#sparkle" x="1724.8" y="388.4" width="11.5" height="11.5" />
    <use href="#sparkle" x="1648.2" y="548.9" width="14.7" height="14.7" />
    <use href="#sparkle" x="1786.5" y="688.3" width="12.8" height="12.8" />
    <use href="#sparkle" x="1692.1" y="828.6" width="11.3" height="11.3" />
    <use href="#sparkle" x="1758.4" y="968.2" width="13.6" height="13.6" />
    <use href="#sparkle" x="188.6" y="268.4" width="12.4" height="12.4" />
    <use href="#sparkle" x="142.8" y="648.7" width="14.1" height="14.1" />
    <use href="#sparkle" x="224.5" y="828.3" width="11.8" height="11.8" />
    <use href="#sparkle" x="168.2" y="968.5" width="10.7" height="10.7" />
  </g>

  <g fill="#9ed4ea" shape-rendering="geometricPrecision">
    <use href="#sparkle-bright" x="948.8" y="168.8" width="22.4" height="22.4" opacity="0.55" />
    <use href="#sparkle-bright" x="406" y="506" width="28" height="28" opacity="0.9" />
    <use href="#sparkle-bright" x="1464.6" y="364.6" width="30.8" height="30.8" opacity="0.95" />
    <use href="#sparkle-bright" x="247.4" y="807.4" width="25.2" height="25.2" opacity="0.85" />
    <use href="#sparkle-bright" x="1666" y="626" width="28" height="28" opacity="0.9" />
    <use href="#sparkle-bright" x="748.1" y="108.1" width="23.8" height="23.8" opacity="0.8" />
    <use href="#sparkle-bright" x="1226.7" y="846.7" width="26.6" height="26.6" opacity="0.88" />
    <use href="#sparkle-bright" x="144.5" y="169.5" width="21" height="21" opacity="0.75" />
    <use href="#sparkle-bright" x="1740.2" y="210.2" width="19.6" height="19.6" opacity="0.7" />
    <use href="#sparkle-bright" x="170.9" y="840.9" width="18.2" height="18.2" opacity="0.72" />
    <use href="#sparkle-bright" x="1709.5" y="909.5" width="21" height="21" opacity="0.78" />
    <use href="#sparkle-bright" x="311.6" y="571.6" width="16.8" height="16.8" opacity="0.65" />
    <use href="#sparkle-bright" x="1570.9" y="470.9" width="18.2" height="18.2" opacity="0.68" />
  </g>

  <g fill="#c9b87a" opacity="0.85" shape-rendering="geometricPrecision">
    <use href="#sparkle-bright" x="1089.6" y="229.6" width="20.8" height="20.8" opacity="1" />
    <use href="#sparkle-bright" x="570.3" y="710.3" width="19.5" height="19.5" opacity="1" />
    <use href="#sparkle-bright" x="1330.9" y="610.9" width="18.2" height="18.2" opacity="1" />
  </g>
</svg>
